<?xml version="1.0" standalone="no"?>
<!DOCTYPE svg PUBLIC "-//W3C//DTD SVG 20010904//EN"
 "http://www.w3.org/TR/2001/REC-SVG-20010904/DTD/svg10.dtd">
<svg version="1.0" xmlns="http://www.w3.org/2000/svg"
 width="200.000000pt" height="200.000000pt" viewBox="0 0 200.000000 200.000000"
 preserveAspectRatio="xMidYMid meet">

<g transform="translate(0.000000,200.000000) scale(0.100000,-0.100000)"
fill="#000000" stroke="none">
<path d="M220 555 l0 -185 45 0 45 0 0 55 0 55 40 0 c37 0 42 -4 76 -55 35
-53 39 -55 81 -55 48 0 48 -3 1 67 -33 49 -34 54 -8 70 50 32 63 121 25 179
-27 41 -72 54 -195 54 l-110 0 0 -185z m199 114 c19 -7 33 -20 37 -34 16 -64
-16 -95 -98 -95 l-48 0 0 70 0 70 39 0 c21 0 52 -5 70 -11z"/>
<path d="M668 639 c-93 -48 -95 -194 -5 -249 46 -29 133 -27 178 3 94 63 88
199 -12 249 -45 23 -115 22 -161 -3z m142 -77 c33 -41 20 -100 -27 -121 -34
-16 -47 -14 -77 10 -46 36 -28 133 27 141 35 6 56 -2 77 -30z"/>
<path d="M924 643 c4 -10 32 -76 63 -147 64 -146 64 -162 -5 -160 -34 0 -42
-4 -52 -24 -16 -35 0 -47 65 -47 45 0 59 4 79 25 21 21 166 338 166 363 0 4
-17 7 -37 5 -36 -3 -37 -5 -73 -91 -21 -49 -41 -88 -46 -89 -5 0 -25 40 -45
89 l-35 88 -43 3 c-39 3 -43 1 -37 -15z"/>
<path d="M1330 642 c-102 -53 -98 -215 6 -258 44 -18 128 -18 164 1 35 18 35
20 13 49 -16 19 -21 20 -43 9 -42 -22 -101 -12 -122 21 -16 23 -5 26 103 26
l111 0 -7 38 c-3 20 -14 51 -24 67 -34 61 -132 83 -201 47z m127 -64 c13 -12
23 -25 23 -30 0 -4 -31 -8 -70 -8 -76 0 -91 14 -48 44 31 22 68 20 95 -6z"/>
<path d="M1620 515 l0 -145 40 0 40 0 0 89 c0 85 1 91 26 110 15 12 35 21 45
21 15 0 19 8 19 36 0 36 -1 36 -32 30 -17 -3 -40 -14 -50 -23 -17 -15 -18 -15
-18 5 0 18 -6 22 -35 22 l-35 0 0 -145z"/>
</g>
</svg>
